<svg xmlns="http://www.w3.org/2000/svg" version="1.1" xmlns:xlink="http://www.w3.org/1999/xlink" xmlns:svgjs="http://svgjs.com/svgjs" width="1440" height="560" preserveAspectRatio="none" viewBox="0 0 1440 560"><g mask="url(&quot;#SvgjsMask1041&quot;)" fill="none"><rect width="1440" height="560" x="0" y="0" fill="rgba(20, 240, 196, 1)"></rect><path d="M35.61 -66.67L100.56 -29.17L100.56 45.83L35.61 83.33L-29.34 45.83L-29.34 -29.17zM100.56 495.83L165.52 533.33L165.52 608.33L100.56 645.83L35.61 608.33L35.61 533.33zM230.47 45.83L295.43 83.33L295.43 158.33L230.47 195.83L165.52 158.33L165.52 83.33zM295.43 -66.67L360.38 -29.17L360.38 45.83L295.43 83.33L230.47 45.83L230.47 -29.17zM360.38 270.83L425.33 308.33L425.33 383.33L360.38 420.83L295.43 383.33L295.43 308.33zM490.29 45.83L555.24 83.33L555.24 158.33L490.29 195.83L425.33 158.33L425.33 83.33zM555.24 383.33L620.19 420.83L620.19 495.83L555.24 533.33L490.29 495.83L490.29 420.83zM880.01 45.83L944.96 83.33L944.96 158.33L880.01 195.83L815.05 158.33L815.05 83.33zM944.96 383.33L1009.92 420.83L1009.92 495.83L944.96 533.33L880.01 495.83L880.01 420.83zM1074.87 -66.67L1139.82 -29.17L1139.82 45.83L1074.87 83.33L1009.92 45.83L1009.92 -29.17zM1139.82 45.83L1204.78 83.33L1204.78 158.33L1139.82 195.83L1074.87 158.33L1074.87 83.33zM1074.87 158.33L1139.82 195.83L1139.82 270.83L1074.87 308.33L1009.92 270.83L1009.92 195.83zM1139.82 270.83L1204.78 308.33L1204.78 383.33L1139.82 420.83L1074.87 383.33L1074.87 308.33zM1269.73 45.83L1334.68 83.33L1334.68 158.33L1269.73 195.83L1204.78 158.33L1204.78 83.33zM1204.78 158.33L1269.73 195.83L1269.73 270.83L1204.78 308.33L1139.82 270.83L1139.82 195.83zM1269.73 270.83L1334.68 308.33L1334.68 383.33L1269.73 420.83L1204.78 383.33L1204.78 308.33zM1269.73 495.83L1334.68 533.33L1334.68 608.33L1269.73 645.83L1204.78 608.33L1204.78 533.33zM1334.68 -66.67L1399.64 -29.17L1399.64 45.83L1334.68 83.33L1269.73 45.83L1269.73 -29.17z" stroke="rgba(23, 165, 137, 1)" stroke-width="2"></path><path d="M28.11 -66.67 a7.5 7.5 0 1 0 15 0 a7.5 7.5 0 1 0 -15 0zM93.06 -29.17 a7.5 7.5 0 1 0 15 0 a7.5 7.5 0 1 0 -15 0zM93.06 45.83 a7.5 7.5 0 1 0 15 0 a7.5 7.5 0 1 0 -15 0zM28.11 83.33 a7.5 7.5 0 1 0 15 0 a7.5 7.5 0 1 0 -15 0zM-36.84 45.83 a7.5 7.5 0 1 0 15 0 a7.5 7.5 0 1 0 -15 0zM-36.84 -29.17 a7.5 7.5 0 1 0 15 0 a7.5 7.5 0 1 0 -15 0zM93.06 495.83 a7.5 7.5 0 1 0 15 0 a7.5 7.5 0 1 0 -15 0zM158.02 533.33 a7.5 7.5 0 1 0 15 0 a7.5 7.5 0 1 0 -15 0zM158.02 608.33 a7.5 7.5 0 1 0 15 0 a7.5 7.5 0 1 0 -15 0zM93.06 645.83 a7.5 7.5 0 1 0 15 0 a7.5 7.5 0 1 0 -15 0zM28.11 608.33 a7.5 7.5 0 1 0 15 0 a7.5 7.5 0 1 0 -15 0zM28.11 533.33 a7.5 7.5 0 1 0 15 0 a7.5 7.5 0 1 0 -15 0zM222.97 45.83 a7.5 7.5 0 1 0 15 0 a7.5 7.5 0 1 0 -15 0zM287.93 83.33 a7.5 7.5 0 1 0 15 0 a7.5 7.5 0 1 0 -15 0zM287.93 158.33 a7.5 7.5 0 1 0 15 0 a7.5 7.5 0 1 0 -15 0zM222.97 195.83 a7.5 7.5 0 1 0 15 0 a7.5 7.5 0 1 0 -15 0zM158.02 158.33 a7.5 7.5 0 1 0 15 0 a7.5 7.5 0 1 0 -15 0zM158.02 83.33 a7.5 7.5 0 1 0 15 0 a7.5 7.5 0 1 0 -15 0zM287.93 -66.67 a7.5 7.5 0 1 0 15 0 a7.5 7.5 0 1 0 -15 0zM352.88 -29.17 a7.5 7.5 0 1 0 15 0 a7.5 7.5 0 1 0 -15 0zM352.88 45.83 a7.5 7.5 0 1 0 15 0 a7.5 7.5 0 1 0 -15 0zM222.97 -29.17 a7.5 7.5 0 1 0 15 0 a7.5 7.5 0 1 0 -15 0zM352.88 270.83 a7.5 7.5 0 1 0 15 0 a7.5 7.5 0 1 0 -15 0zM417.83 308.33 a7.5 7.5 0 1 0 15 0 a7.5 7.5 0 1 0 -15 0zM417.83 383.33 a7.5 7.5 0 1 0 15 0 a7.5 7.5 0 1 0 -15 0zM352.88 420.83 a7.5 7.5 0 1 0 15 0 a7.5 7.5 0 1 0 -15 0zM287.93 383.33 a7.5 7.5 0 1 0 15 0 a7.5 7.5 0 1 0 -15 0zM287.93 308.33 a7.5 7.5 0 1 0 15 0 a7.5 7.5 0 1 0 -15 0zM482.79 45.83 a7.5 7.5 0 1 0 15 0 a7.5 7.5 0 1 0 -15 0zM547.74 83.33 a7.5 7.5 0 1 0 15 0 a7.5 7.5 0 1 0 -15 0zM547.74 158.33 a7.5 7.5 0 1 0 15 0 a7.5 7.5 0 1 0 -15 0zM482.79 195.83 a7.5 7.5 0 1 0 15 0 a7.5 7.5 0 1 0 -15 0zM417.83 158.33 a7.5 7.5 0 1 0 15 0 a7.5 7.5 0 1 0 -15 0zM417.83 83.33 a7.5 7.5 0 1 0 15 0 a7.5 7.5 0 1 0 -15 0zM547.74 383.33 a7.5 7.5 0 1 0 15 0 a7.5 7.5 0 1 0 -15 0zM612.69 420.83 a7.5 7.5 0 1 0 15 0 a7.5 7.5 0 1 0 -15 0zM612.69 495.83 a7.5 7.5 0 1 0 15 0 a7.5 7.5 0 1 0 -15 0zM547.74 533.33 a7.5 7.5 0 1 0 15 0 a7.5 7.5 0 1 0 -15 0zM482.79 495.83 a7.5 7.5 0 1 0 15 0 a7.5 7.5 0 1 0 -15 0zM482.79 420.83 a7.5 7.5 0 1 0 15 0 a7.5 7.5 0 1 0 -15 0zM872.51 45.83 a7.5 7.5 0 1 0 15 0 a7.5 7.5 0 1 0 -15 0zM937.46 83.33 a7.5 7.5 0 1 0 15 0 a7.5 7.5 0 1 0 -15 0zM937.46 158.33 a7.5 7.5 0 1 0 15 0 a7.5 7.5 0 1 0 -15 0zM872.51 195.83 a7.5 7.5 0 1 0 15 0 a7.5 7.5 0 1 0 -15 0zM807.55 158.33 a7.5 7.5 0 1 0 15 0 a7.5 7.5 0 1 0 -15 0zM807.55 83.33 a7.5 7.5 0 1 0 15 0 a7.5 7.5 0 1 0 -15 0zM937.46 383.33 a7.5 7.5 0 1 0 15 0 a7.5 7.5 0 1 0 -15 0zM1002.42 420.83 a7.5 7.5 0 1 0 15 0 a7.5 7.5 0 1 0 -15 0zM1002.42 495.83 a7.5 7.5 0 1 0 15 0 a7.5 7.5 0 1 0 -15 0zM937.46 533.33 a7.5 7.5 0 1 0 15 0 a7.5 7.5 0 1 0 -15 0zM872.51 495.83 a7.5 7.5 0 1 0 15 0 a7.5 7.5 0 1 0 -15 0zM872.51 420.83 a7.5 7.5 0 1 0 15 0 a7.5 7.5 0 1 0 -15 0zM1067.37 -66.67 a7.5 7.5 0 1 0 15 0 a7.5 7.5 0 1 0 -15 0zM1132.32 -29.17 a7.5 7.5 0 1 0 15 0 a7.5 7.5 0 1 0 -15 0zM1132.32 45.83 a7.5 7.5 0 1 0 15 0 a7.5 7.5 0 1 0 -15 0zM1067.37 83.33 a7.5 7.5 0 1 0 15 0 a7.5 7.5 0 1 0 -15 0zM1002.42 45.83 a7.5 7.5 0 1 0 15 0 a7.5 7.5 0 1 0 -15 0zM1002.42 -29.17 a7.5 7.5 0 1 0 15 0 a7.5 7.5 0 1 0 -15 0zM1197.28 83.33 a7.5 7.5 0 1 0 15 0 a7.5 7.5 0 1 0 -15 0zM1197.28 158.33 a7.5 7.5 0 1 0 15 0 a7.5 7.5 0 1 0 -15 0zM1132.32 195.83 a7.5 7.5 0 1 0 15 0 a7.5 7.5 0 1 0 -15 0zM1067.37 158.33 a7.5 7.5 0 1 0 15 0 a7.5 7.5 0 1 0 -15 0zM1132.32 270.83 a7.5 7.5 0 1 0 15 0 a7.5 7.5 0 1 0 -15 0zM1067.37 308.33 a7.5 7.5 0 1 0 15 0 a7.5 7.5 0 1 0 -15 0zM1002.42 270.83 a7.5 7.5 0 1 0 15 0 a7.5 7.5 0 1 0 -15 0zM1002.42 195.83 a7.5 7.5 0 1 0 15 0 a7.5 7.5 0 1 0 -15 0zM1197.28 308.33 a7.5 7.5 0 1 0 15 0 a7.5 7.5 0 1 0 -15 0zM1197.28 383.33 a7.5 7.5 0 1 0 15 0 a7.5 7.5 0 1 0 -15 0zM1132.32 420.83 a7.5 7.5 0 1 0 15 0 a7.5 7.5 0 1 0 -15 0zM1067.37 383.33 a7.5 7.5 0 1 0 15 0 a7.5 7.5 0 1 0 -15 0zM1262.23 45.83 a7.5 7.5 0 1 0 15 0 a7.5 7.5 0 1 0 -15 0zM1327.18 83.33 a7.5 7.5 0 1 0 15 0 a7.5 7.5 0 1 0 -15 0zM1327.18 158.33 a7.5 7.5 0 1 0 15 0 a7.5 7.5 0 1 0 -15 0zM1262.23 195.83 a7.5 7.5 0 1 0 15 0 a7.5 7.5 0 1 0 -15 0zM1262.23 270.83 a7.5 7.5 0 1 0 15 0 a7.5 7.5 0 1 0 -15 0zM1327.18 308.33 a7.5 7.5 0 1 0 15 0 a7.5 7.5 0 1 0 -15 0zM1327.18 383.33 a7.5 7.5 0 1 0 15 0 a7.5 7.5 0 1 0 -15 0zM1262.23 420.83 a7.5 7.5 0 1 0 15 0 a7.5 7.5 0 1 0 -15 0zM1262.23 495.83 a7.5 7.5 0 1 0 15 0 a7.5 7.5 0 1 0 -15 0zM1327.18 533.33 a7.5 7.5 0 1 0 15 0 a7.5 7.5 0 1 0 -15 0zM1327.18 608.33 a7.5 7.5 0 1 0 15 0 a7.5 7.5 0 1 0 -15 0zM1262.23 645.83 a7.5 7.5 0 1 0 15 0 a7.5 7.5 0 1 0 -15 0zM1197.28 608.33 a7.5 7.5 0 1 0 15 0 a7.5 7.5 0 1 0 -15 0zM1197.28 533.33 a7.5 7.5 0 1 0 15 0 a7.5 7.5 0 1 0 -15 0zM1327.18 -66.67 a7.5 7.5 0 1 0 15 0 a7.5 7.5 0 1 0 -15 0zM1392.14 -29.17 a7.5 7.5 0 1 0 15 0 a7.5 7.5 0 1 0 -15 0zM1392.14 45.83 a7.5 7.5 0 1 0 15 0 a7.5 7.5 0 1 0 -15 0zM1262.23 -29.17 a7.5 7.5 0 1 0 15 0 a7.5 7.5 0 1 0 -15 0z" fill="rgba(23, 165, 137, 1)"></path><path d="M17.28 -35.53L59.72 -11.03L59.72 37.97L17.28 62.47L-25.16 37.97L-25.16 -11.03zM59.72 37.97L102.15 62.47L102.15 111.47L59.72 135.97L17.28 111.47L17.28 62.47zM187.03 258.47L229.46 282.97L229.46 331.97L187.03 356.47L144.59 331.97L144.59 282.97zM314.34 184.97L356.77 209.47L356.77 258.47L314.34 282.97L271.9 258.47L271.9 209.47zM271.9 258.47L314.34 282.97L314.34 331.97L271.9 356.47L229.46 331.97L229.46 282.97zM314.34 331.97L356.77 356.47L356.77 405.47L314.34 429.97L271.9 405.47L271.9 356.47zM356.77 -35.53L399.21 -11.03L399.21 37.97L356.77 62.47L314.34 37.97L314.34 -11.03zM399.21 331.97L441.64 356.47L441.64 405.47L399.21 429.97L356.77 405.47L356.77 356.47zM399.21 478.97L441.64 503.47L441.64 552.47L399.21 576.97L356.77 552.47L356.77 503.47zM441.64 -35.53L484.08 -11.03L484.08 37.97L441.64 62.47L399.21 37.97L399.21 -11.03zM484.08 37.97L526.52 62.47L526.52 111.47L484.08 135.97L441.64 111.47L441.64 62.47zM441.64 111.47L484.08 135.97L484.08 184.97L441.64 209.47L399.21 184.97L399.21 135.97zM484.08 184.97L526.52 209.47L526.52 258.47L484.08 282.97L441.64 258.47L441.64 209.47zM441.64 258.47L484.08 282.97L484.08 331.97L441.64 356.47L399.21 331.97L399.21 282.97zM484.08 478.97L526.52 503.47L526.52 552.47L484.08 576.97L441.64 552.47L441.64 503.47zM526.52 111.47L568.95 135.97L568.95 184.97L526.52 209.47L484.08 184.97L484.08 135.97zM526.52 258.47L568.95 282.97L568.95 331.97L526.52 356.47L484.08 331.97L484.08 282.97zM526.52 552.47L568.95 576.97L568.95 625.97L526.52 650.47L484.08 625.97L484.08 576.97zM611.39 405.47L653.83 429.97L653.83 478.97L611.39 503.47L568.95 478.97L568.95 429.97zM696.26 -35.53L738.7 -11.03L738.7 37.97L696.26 62.47L653.83 37.97L653.83 -11.03zM696.26 258.47L738.7 282.97L738.7 331.97L696.26 356.47L653.83 331.97L653.83 282.97zM738.7 331.97L781.14 356.47L781.14 405.47L738.7 429.97L696.26 405.47L696.26 356.47zM696.26 405.47L738.7 429.97L738.7 478.97L696.26 503.47L653.83 478.97L653.83 429.97zM823.57 37.97L866.01 62.47L866.01 111.47L823.57 135.97L781.14 111.47L781.14 62.47zM781.14 111.47L823.57 135.97L823.57 184.97L781.14 209.47L738.7 184.97L738.7 135.97zM823.57 331.97L866.01 356.47L866.01 405.47L823.57 429.97L781.14 405.47L781.14 356.47zM866.01 111.47L908.45 135.97L908.45 184.97L866.01 209.47L823.57 184.97L823.57 135.97zM993.32 37.97L1035.75 62.47L1035.75 111.47L993.32 135.97L950.88 111.47L950.88 62.47zM950.88 111.47L993.32 135.97L993.32 184.97L950.88 209.47L908.45 184.97L908.45 135.97zM950.88 552.47L993.32 576.97L993.32 625.97L950.88 650.47L908.45 625.97L908.45 576.97zM1035.75 258.47L1078.19 282.97L1078.19 331.97L1035.75 356.47L993.32 331.97L993.32 282.97zM1163.06 37.97L1205.5 62.47L1205.5 111.47L1163.06 135.97L1120.63 111.47L1120.63 62.47zM1163.06 331.97L1205.5 356.47L1205.5 405.47L1163.06 429.97L1120.63 405.47L1120.63 356.47zM1120.63 552.47L1163.06 576.97L1163.06 625.97L1120.63 650.47L1078.19 625.97L1078.19 576.97zM1247.94 37.97L1290.37 62.47L1290.37 111.47L1247.94 135.97L1205.5 111.47L1205.5 62.47zM1290.37 111.47L1332.81 135.97L1332.81 184.97L1290.37 209.47L1247.94 184.97L1247.94 135.97zM1375.25 -35.53L1417.68 -11.03L1417.68 37.97L1375.25 62.47L1332.81 37.97L1332.81 -11.03zM1417.68 37.97L1460.12 62.47L1460.12 111.47L1417.68 135.97L1375.25 111.47L1375.25 62.47z" stroke="rgba(23, 165, 137, 1)" stroke-width="2"></path></g><defs><mask id="SvgjsMask1041"><rect width="1440" height="560" fill="#ffffff"></rect></mask></defs></svg>